HIERARCHY
ROOT root
{
	OFFSET	0	13.1	24.9
	CHANNELS 6  Xposition Yposition Zposition Xrotation Yrotation Zrotation
	JOINT spine_1
	{
		OFFSET	0	9.99999	0
		CHANNELS 3  Xrotation Yrotation Zrotation
		JOINT spine_2
		{
			OFFSET	0	112	-10
			CHANNELS 3  Xrotation Yrotation Zrotation
			JOINT spine_3
			{
				OFFSET	0	206.5	19.3
				CHANNELS 3  Xrotation Yrotation Zrotation
				JOINT spine_4
				{
					OFFSET	0	110.4	14.6
					CHANNELS 3  Xrotation Yrotation Zrotation
					JOINT neck_1
					{
						OFFSET	0	71.8	-50.3
						CHANNELS 3  Xrotation Yrotation Zrotation
						JOINT neck_2
						{
							OFFSET	0	86.2	-25.8
							CHANNELS 3  Xrotation Yrotation Zrotation
							JOINT head_ee
							{
								OFFSET	0	179.8	-8.7
								CHANNELS 3  Xrotation Yrotation Zrotation
								End Site
								{
									OFFSET	1	0	0
								}
							}
						}
					}
					JOINT left_clavicle
					{
						OFFSET	-43.2	22.4	-70.8
						CHANNELS 3  Xrotation Yrotation Zrotation
						JOINT left_shoulder
						{
							OFFSET	-93.9	-5.79999	48.7
							CHANNELS 3  Xrotation Yrotation Zrotation
							JOINT left_elbow
							{
								OFFSET	-291.4	-30.8	15.2
								CHANNELS 3  Xrotation Yrotation Zrotation
								JOINT left_lowarm_twist
								{
									OFFSET	-110.7	-3.89999	13.6
									CHANNELS 3  Xrotation Yrotation Zrotation
									JOINT left_hand
									{
										OFFSET	-110.7	-3.89999	13.6
										CHANNELS 3  Xrotation Yrotation Zrotation
										JOINT left_ee
										{
											OFFSET	-80.8	-5.10001	12.1
											CHANNELS 3  Xrotation Yrotation Zrotation
											End Site
											{
												OFFSET	1	0	0
											}
										}
									}
								}
							}
						}
					}
					JOINT right_clavicle
					{
						OFFSET	43.2	22.4	-70.8
						CHANNELS 3  Xrotation Yrotation Zrotation
						JOINT right_shoulder
						{
							OFFSET	93.9	-5.79999	48.7
							CHANNELS 3  Xrotation Yrotation Zrotation
							JOINT right_elbow
							{
								OFFSET	291.4	-30.8	15.2
								CHANNELS 3  Xrotation Yrotation Zrotation
								JOINT right_lowarm_twist
								{
									OFFSET	110.7	-3.89999	13.6
									CHANNELS 3  Xrotation Yrotation Zrotation
									JOINT right_hand
									{
										OFFSET	110.7	-3.89999	13.6
										CHANNELS 3  Xrotation Yrotation Zrotation
										JOINT right_ee
										{
											OFFSET	80.8	-5.10001	12.1
											CHANNELS 3  Xrotation Yrotation Zrotation
											End Site
											{
												OFFSET	1	0	0
											}
										}
									}
								}
							}
						}
					}
				}
			}
		}
	}
	JOINT left_hip
	{
		OFFSET	-82.8	-127.5	0.300001
		CHANNELS 3  Xrotation Yrotation Zrotation
		JOINT left_knee
		{
			OFFSET	-28.2	-396.7	2.2
			CHANNELS 3  Xrotation Yrotation Zrotation
			JOINT left_ankle
			{
				OFFSET	-11.7	-411.3	35.4
				CHANNELS 3  Xrotation Yrotation Zrotation
				JOINT left_toes
				{
					OFFSET	0	-60	-88.6
					CHANNELS 3  Xrotation Yrotation Zrotation
					JOINT left_foot_ee
					{
						OFFSET	-22.5	-16.5	-42.2
						CHANNELS 3  Xrotation Yrotation Zrotation
						End Site
						{
							OFFSET	1	0	0
						}
					}
				}
			}
		}
	}
	JOINT right_hip
	{
		OFFSET	82.8	-127.5	0.300001
		CHANNELS 3  Xrotation Yrotation Zrotation
		JOINT right_knee
		{
			OFFSET	28.2	-396.7	2.2
			CHANNELS 3  Xrotation Yrotation Zrotation
			JOINT right_ankle
			{
				OFFSET	11.7	-411.3	35.4
				CHANNELS 3  Xrotation Yrotation Zrotation
				JOINT right_toes
				{
					OFFSET	0	-60	-88.6
					CHANNELS 3  Xrotation Yrotation Zrotation
					JOINT right_foot_ee
					{
						OFFSET	22.5	-16.5	-42.2
						CHANNELS 3  Xrotation Yrotation Zrotation
						End Site
						{
							OFFSET	1	0	0
						}
					}
				}
			}
		}
	}
}
MOTION
Frames: 6
Frame Time: 0.02
2800.94 716.97 -1473.77 9.11725 60.2756 -12.154 -1.06468 0.119549 3.27747 -1.05871 -0.0891334 3.27844 -1.05977 -0.835897 3.17145 -1.07366 -0.324816 3.26354 7.4423 15.8574 -9.40067 10.2045 34.9094 -11.5989 -0.0 0.0 -0.0 -1.22554 4.75896 -1.68912 1.36068 -4.0465 51.3923 12.8565 -81.0026 10.9934 -24.8511 -1.50227 2.77469 0.155187 7.69484 4.21138 -0.0 0.0 -0.0 11.9765 23.5929 -23.5793 -29.4119 33.4805 -62.7951 0.459533 12.8244 -0.0516445 41.0151 0.403114 5.1136 0.741344 -0.335511 -5.09471 0.0 0.0 0.0 -43.7514 44.6084 22.9457 5.3616 -0.257622 -0.78193 -16.0322 -5.63218 2.48274 17.263 -0.0 -0.0 -0.0 0.0 -0.0 21.0171 12.9267 -11.6634 6.76861 0.337284 0.982935 -22.5453 1.51678 -3.44537 -16.818 0.0 0.0 0.0 0.0 0.0 
2781.6 723.818 -1478.32 9.14281 60.0913 -12.4434 -1.07642 0.280794 3.3061 -1.07034 0.0699673 3.31725 -1.06181 -0.689766 3.24558 -1.07647 -0.168826 3.31369 6.61256 16.929 -7.88214 9.17011 35.5564 -9.48493 -0.0 0.0 -0.0 -1.2242 6.27267 -1.46849 0.840812 -3.49694 52.5147 9.47623 -77.9212 7.66896 -25.9329 -1.59393 2.8787 -0.0942055 7.92286 2.68513 -0.0 0.0 -0.0 12.029 23.5114 -23.7074 -27.9952 33.1363 -63.6936 0.468222 13.0587 -0.0535904 41.246 0.415652 5.14034 0.491796 0.689918 -3.00021 0.0 0.0 0.0 -40.7725 44.0986 20.694 2.9943 -0.134836 -0.439612 -16.7414 -3.50723 2.57117 16.8651 -0.0 -0.0 -0.0 0.0 -0.0 20.1859 13.0723 -11.6902 6.03297 0.295016 0.878081 -22.9093 4.35185 -3.53673 -11.9614 0.0 0.0 0.0 0.0 0.0 
2763.07 733.942 -1491.54 8.97862 58.3446 -12.4353 -1.08032 0.481103 3.13651 -1.0749 0.280647 3.16073 -1.05494 -0.448151 3.14138 -1.06871 0.0533369 3.17271 5.37763 18.386 -5.73072 7.65495 36.4559 -6.50874 -0.0 0.0 -0.0 -1.27276 8.39858 -1.2462 0.481827 -2.73269 53.7889 6.81776 -73.4699 5.09094 -27.4707 -1.72758 3.02358 -0.452963 8.26949 0.507514 -0.0 0.0 -0.0 12.0771 23.417 -23.8267 -26.1011 32.6147 -64.9158 0.481427 13.4138 -0.0566137 41.5353 0.431519 5.17377 0.138964 2.13663 -0.0296728 0.0 0.0 0.0 -36.5967 43.2324 17.5702 -0.382585 0.0155643 0.0566486 -17.772 -0.472476 2.70385 16.2964 -0.0 -0.0 -0.0 0.0 -0.0 18.9976 13.2937 -11.4885 4.80898 0.227691 0.702469 -23.5047 8.38208 -3.69763 -5.06639 0.0 0.0 0.0 0.0 0.0 
2743.17 733.38 -1493.04 7.48453 57.3518 -11.1278 -0.816837 0.525966 2.9806 -0.811957 0.335325 3.008 -0.790546 -0.346053 3.00678 -0.803137 0.132931 3.02369 5.85718 18.7117 -5.51412 8.23293 36.7268 -6.41484 -0.0 0.0 -0.0 -1.21155 7.59933 -1.25394 -0.487894 -3.60672 54.3356 4.75258 -66.9632 3.14448 -27.6814 -1.7462 3.04315 -0.886918 10.226 -1.44132 -0.0 0.0 -0.0 11.9034 23.452 -23.4256 -25.0121 32.4373 -64.1166 0.548118 15.191 -0.0730912 42.4891 0.485019 5.28342 0.229154 4.67544 0.436586 0.0 0.0 0.0 -32.2865 41.5479 15.2409 -9.18957 0.2679 1.38336 -17.5701 0.788919 2.66399 18.7874 -0.0 -0.0 -0.0 0.0 -0.0 18.1086 13.6634 -11.6016 4.39596 0.205825 0.642898 -22.8109 11.8067 -3.66233 -0.134085 0.0 0.0 0.0 0.0 0.0 
2729.61 734.05 -1495.0 6.61723 55.5478 -10.2829 -0.910243 0.458212 2.7779 -0.905994 0.280589 2.8014 -0.888908 -0.358003 2.79257 -0.89978 0.0873438 2.81406 7.84438 18.621 -6.72131 10.7406 37.157 -8.56701 -0.0 0.0 -0.0 -1.10429 6.38931 -1.23475 -1.88091 -5.12353 55.1142 3.18715 -57.6378 1.75384 -26.3357 -1.62856 2.917 -1.14833 11.2204 -2.66905 -0.0 0.0 -0.0 11.8134 23.8969 -23.1767 -23.6009 32.5745 -63.5742 0.64472 17.7123 -0.100456 42.4338 0.481867 5.27709 0.260109 6.43401 0.973704 0.0 0.0 0.0 -26.8619 40.0952 12.2569 -21.7726 0.270366 3.31017 -13.0315 2.6202 1.9609 21.3815 -0.0 -0.0 -0.0 0.0 -0.0 17.4698 14.0757 -11.1684 4.38011 0.204995 0.640609 -20.5726 14.7676 -3.37224 1.94802 -0.0 -0.0 0.0 0.0 0.0 
2703.4 741.612 -1497.61 6.73144 53.7032 -9.83588 -1.25545 0.251606 2.83624 -1.25098 0.0706936 2.8465 -1.24394 -0.5902 2.78558 -1.25474 -0.143049 2.84378 9.83982 18.8888 -7.26938 13.23 37.6 -9.95196 -0.0 0.0 -0.0 -0.955299 4.68956 -1.20075 -3.98091 -7.88225 56.1287 2.16862 -47.0446 0.944036 -23.5336 -1.39333 2.64571 -1.43926 11.3847 -4.44632 -0.0 0.0 -0.0 11.5804 24.0849 -22.6268 -22.9892 32.7679 -62.6206 0.805985 21.7648 -0.154954 42.3103 0.474851 5.26294 0.584702 9.68235 0.16579 0.0 0.0 0.0 -21.2529 38.6061 9.73042 -38.0229 -0.345804 5.71951 -6.06688 4.59734 0.901215 25.0881 -0.0 -0.0 -0.0 0.0 -0.0 17.4536 14.5447 -11.0465 4.38209 0.205098 0.640895 -16.2912 19.0156 -2.76217 3.463 -0.0 -0.0 0.0 0.0 0.0 
